<svg version="1.1" viewBox="0.0 0.0 960.0 540.0" fill="none" stroke="none" stroke-linecap="square" stroke-miterlimit="10" xmlns:xlink="http://www.w3.org/1999/xlink" xmlns="http://www.w3.org/2000/svg"><clipPath id="p.0"><path d="m0 0l960.0 0l0 540.0l-960.0 0l0 -540.0z" clip-rule="nonzero"/></clipPath><g clip-path="url(#p.0)"><path fill="#ffffff" d="m0 0l960.0 0l0 540.0l-960.0 0z" fill-rule="evenodd"/><path fill="#ffffff" d="m0 0l96.0 0l0 113.95276l-96.0 0z" fill-rule="evenodd"/><path stroke="#ffffff" stroke-width="1.0" stroke-linejoin="round" stroke-linecap="butt" d="m0 0l96.0 0l0 113.95276l-96.0 0z" fill-rule="evenodd"/><path fill="#ffffff" d="m860.147 420.59317l96.0 0l0 113.95279l-96.0 0z" fill-rule="evenodd"/><path stroke="#ffffff" stroke-width="1.0" stroke-linejoin="round" stroke-linecap="butt" d="m860.147 420.59317l96.0 0l0 113.95279l-96.0 0z" fill-rule="evenodd"/><path fill="#000000" fill-opacity="0.0" d="m48.0 113.95276c0 76.65988 215.03937 114.98906 430.07874 153.31976c215.03937 38.33072 430.07874 76.662964 430.07874 153.3259" fill-rule="evenodd"/><path stroke="#595959" stroke-width="1.0" stroke-linejoin="round" stroke-linecap="butt" stroke-dasharray="1.0,3.0" d="m48.0 113.95276c0 76.65988 215.03937 114.98906 430.07874 153.31976c215.03937 38.33072 430.07874 76.662964 430.07874 153.3259" fill-rule="evenodd"/></g></svg>